<svg width="60" height="60" viewBox="0 0 60 60" fill="none" xmlns="http://www.w3.org/2000/svg">
<path fill-rule="evenodd" clip-rule="evenodd" d="M39.8925 39.1915C40.283 38.801 40.283 38.1678 39.8925 37.7773L31.4076 29.2924L39.1856 21.5144C39.5761 21.1239 39.5761 20.4907 39.1856 20.1002C38.7951 19.7096 38.1619 19.7096 37.7714 20.1002L29.9934 27.8782L22.2148 20.0996C21.8243 19.7091 21.1911 19.7091 20.8006 20.0996C20.4101 20.4901 20.4101 21.1233 20.8006 21.5138L28.5792 29.2924L20.0937 37.7778C19.7032 38.1684 19.7032 38.8015 20.0937 39.1921C20.4843 39.5826 21.1174 39.5826 21.5079 39.1921L29.9934 30.7066L38.4783 39.1915C38.8688 39.582 39.502 39.582 39.8925 39.1915Z" fill="#222222"/>
</svg>
